<svg id="Layer_1" xmlns="http://www.w3.org/2000/svg" viewBox="0 0 72 72"><style>.st0{fill:#fff}</style><path id="instagram-circle-icon" class="st0" d="M53.1 20.3v4.4c0 .7-.6 1.3-1.3 1.3h-4.3c-.7 0-1.3-.6-1.3-1.3v-4.4c0-.7.6-1.3 1.3-1.3h4.3c.7 0 1.3.6 1.3 1.3zM36.5 42.1c3.3 0 5.9-2.6 5.9-5.9 0-3.3-2.6-5.9-5.9-5.9-3.3 0-5.9 2.6-5.9 5.9 0 3.2 2.7 5.9 5.9 5.9zM72 36c0 19.9-16.1 36-36 36S0 55.9 0 36 16.1 0 36 0s36 16.1 36 36zm-15.2-5.8H44.9c1.2 1.7 1.9 3.8 1.9 6 0 5.7-4.6 10.4-10.4 10.4C30.7 46.6 26 42 26 36.2c0-2.2.7-4.3 1.9-6H16.3v18.2c0 4.4 3.6 8 8 8h24.5c4.4 0 8-3.6 8-8V30.2zm-20.3 14c4.4 0 8-3.6 8-8 0-2.4-1.1-4.5-2.7-6-.6-.5-1.2-.9-2-1.3-1-.5-2.1-.7-3.3-.7-1.2 0-2.3.3-3.3.7-.7.3-1.4.8-2 1.3-1.7 1.5-2.7 3.6-2.7 6 0 4.4 3.6 8 8 8zm20.3-20.5c0-4.4-3.6-8-8-8H26.9v10.1h-1.6V15.7h-1.1v10.1h-1.6v-9.9c-.4.1-.8.2-1.2.4v9.5h-1.6v-8.6c-2 1.5-3.4 3.8-3.4 6.5V29h12.8c1.9-1.9 4.5-3.1 7.4-3.1 2.9 0 5.5 1.2 7.4 3.1h12.9l-.1-5.3z"/></svg>