<svg id="Layer_1" xmlns="http://www.w3.org/2000/svg" viewBox="0 0 72 72"><style>.st0{fill:#fff}</style><path id="pinterest-circle-icon" class="st0" d="M36 0C16.1 0 0 16.1 0 36s16.1 36 36 36 36-16.1 36-36S55.9 0 36 0zm4.7 47.8c-2.8 0-5.5-1.5-6.4-3.2l-1.8 7.2c-1.1 4.1-4.4 8.2-4.7 8.5-.2.2-.6.2-.6-.1-.1-.5-.9-5.7.1-9.9.5-2.1 3.4-14.2 3.4-14.2s-.8-1.7-.8-4.1c0-3.9 2.2-6.7 5-6.7 2.4 0 3.5 1.8 3.5 3.9 0 2.4-1.5 5.9-2.3 9.2-.7 2.8 1.4 5 4.1 5 4.9 0 8.3-6.3 8.3-13.9 0-5.7-3.8-10-10.8-10-7.9 0-12.8 5.9-12.8 12.5 0 2.3.7 3.9 1.7 5.1.5.6.5.8.4 1.5-.1.5-.4 1.6-.5 2.1-.2.7-.7.9-1.3.7-3.6-1.5-5.3-5.5-5.3-10 0-7.4 6.2-16.3 18.6-16.3C48.4 15.1 55 22.3 55 30c-.2 10.2-5.9 17.8-14.3 17.8z"/></svg>