<svg id="Layer_1" xmlns="http://www.w3.org/2000/svg" viewBox="0 0 166 22.7"><style>.st0{fill:#f3747b}</style><g id="XMLID_3_"><path id="XMLID_55_" class="st0" d="M5.7 22.7c-3.8 0-5.7-1-5.7-3.1 0-.5.2-1 .5-1.4.3-.4.7-.6 1.2-.6.9 0 1.4.4 1.7 1.2-.3.4-.5.7-.5 1.2 0 .7.2 1.3.7 1.7.5.4 1.2.6 2.3.6 1 0 1.9-.3 2.7-.8.8-.5 1.1-1.2 1.1-1.9s-.3-1.3-.8-1.6c-.5-.4-1.4-.7-2.5-1.1l-3.6-1.1C1.1 15.3.3 14.1.3 12.1c0-1.2.5-2.3 1.4-3.1s2.2-1.2 3.8-1.2c1.5 0 2.8.3 3.6.8.9.5 1.3 1.2 1.3 2.1 0 .5-.1.9-.4 1.2-.3.3-.7.5-1.1.5-.4 0-.8-.1-1-.3-.3-.2-.4-.5-.4-.9.3-.4.5-.8.5-1.3 0-1.2-.8-1.8-2.5-1.8-1.2 0-2.2.2-2.9.7-.7.5-1.1 1-1.1 1.7 0 .6.1 1.1.4 1.4.3.3.7.5 1.5.8l4.5 1.4c1.1.3 1.8.8 2.3 1.5s.7 1.6.7 2.7-.4 2.2-1.3 3.1-2.2 1.3-3.9 1.3z"/><path id="XMLID_57_" class="st0" d="M15.3 20.6c-1.4-1.4-2.1-3.2-2.1-5.5 0-2.2.7-4 2.1-5.5 1.3-1.4 3.1-2 5.2-2s3.8.7 5.2 2.1c1.4 1.4 2.1 3.2 2.1 5.4s-.7 4-2.1 5.4c-1.4 1.4-3.1 2.1-5.1 2.1-2.2.1-3.9-.6-5.3-2zm9.3-4.1v-2.8c0-1.7-.3-3-1-4s-1.7-1.5-3.1-1.5-2.5.6-3.2 1.5c-.7 1-1 2.3-1 4v2.8c0 1.7.4 3 1 4 .7 1 1.7 1.5 3.1 1.5s2.4-.5 3.1-1.5c.8-1 1.1-2.3 1.1-4z"/><path id="XMLID_60_" class="st0" d="M39.5 12.1c.5-.4.8-.9.8-1.5 0-.7-.3-1.2-.8-1.6-.6-.4-1.3-.7-2.2-.7-1.3 0-2.4.5-3.1 1.4-.7 1-1.1 2.3-1.1 4v2.8c0 1.7.4 3 1.1 4 .7 1 1.7 1.5 3 1.5s2.5-.4 3.4-1.1c.9-.7 1.5-1.7 1.8-2.8h.6c-.3 1.4-.9 2.5-1.9 3.3-1 .8-2.3 1.2-3.8 1.2-2.1 0-3.8-.7-5.2-2.1-1.4-1.4-2.1-3.2-2.1-5.5s.7-4.1 2.2-5.4c1.4-1.3 3.1-2 5.1-2 1.6 0 3 .4 4.1 1.2s1.7 1.8 1.7 3.1c0 .6-.2 1.1-.5 1.4-.3.3-.7.5-1.2.5s-.9-.2-1.3-.5-.6-.7-.6-1.2z"/><path id="XMLID_62_" class="st0" d="M44.8 8.5v-.6h4.8v13.6l2 .3v.6h-6.7v-.6l2-.3V8.8l-2.1-.3zm1.1-5.7c0-.5.2-1 .5-1.3s.8-.5 1.3-.5 1 .2 1.3.5.5.8.5 1.3-.2 1-.5 1.3c-.4.4-.8.5-1.3.5s-1-.2-1.3-.5c-.3-.4-.5-.8-.5-1.3z"/><path id="XMLID_65_" class="st0" d="M62.4 19.6c-.5 1-1.2 1.7-2.1 2.2-.9.5-2 .8-3.1.8s-2.1-.3-2.9-.9c-.7-.6-1.1-1.5-1.1-2.6s.2-2 .7-2.6c.5-.6 1.1-1.1 1.8-1.5 1.4-.7 3.2-1 5.6-1h1v-2.7c0-2.1-1-3.1-2.9-3.1-.8 0-1.5.2-2.1.6-.5.4-.8.8-.8 1.4 0 .5.3.9.8 1 0 .5-.2.9-.5 1.2-.4.4-.8.5-1.3.5s-.9-.2-1.2-.5-.5-.8-.5-1.3.2-1 .5-1.4c.3-.4.7-.8 1.2-1.1 1-.7 2.4-1 3.9-1 3.8 0 5.7 1.4 5.7 4.3v8.6c0 .8.3 1.3 1 1.3s1-.4 1-1.2h.6c0 .7-.2 1.2-.6 1.5-.4.4-1 .6-1.8.6s-1.5-.3-2.1-.8c-.5-.5-.8-1.2-.8-2.3zm0-2v-2.9h-1c-1.5 0-2.7.3-3.7 1s-1.5 1.7-1.5 3.2c0 .7.2 1.3.6 1.8.4.4 1 .6 1.8.6s1.6-.3 2.4-1 1.2-1.5 1.4-2.7z"/><path id="XMLID_68_" class="st0" d="M68.2.6V0h4.9v21.6l2 .3v.6h-6.9v-.6l2.1-.3V.8L68.2.6z"/><path id="XMLID_70_" class="st0" d="M92.6 22.4v-.6l1.7-.3v-9.9c0-2-.8-3.1-2.3-3.1-1.5 0-2.8.9-4.2 2.8v10.1l1.7.3v.6h-6.4v-.6l2-.3V8.7l-2-.3v-.5h4.8v2.6c1.4-1.9 3.1-2.8 5-2.8 2.4 0 3.8 1 4.1 3 1.4-2 3.1-3 5.1-3 1.3 0 2.4.3 3.1 1 .7.7 1.1 1.7 1.1 3v9.9l2 .3v.6h-6.4v-.6l1.7-.3v-9.9c0-2-.8-3.1-2.3-3.1-1.5 0-2.8.9-4.2 2.8v10.1l1.7.3v.6h-6.2z"/><path id="XMLID_72_" class="st0" d="M117.3 22.1c.7 0 1.3-.1 1.9-.3.6-.2 1.1-.5 1.6-.8 1-.7 1.6-1.7 1.8-2.8h.6c-.3 1.4-.9 2.5-2 3.3-1.1.8-2.4 1.2-3.9 1.2-2.1 0-3.9-.7-5.3-2.1-1.4-1.4-2.1-3.2-2.1-5.5 0-2.2.7-4 2.1-5.4 1.3-1.4 3.1-2.1 5.1-2.1 1.8 0 3.3.6 4.4 1.7 1.1 1.2 1.7 2.7 1.8 4.4H113v2.8c0 1.7.4 3 1.1 4 .8 1.1 1.8 1.6 3.2 1.6zm-.2-13.8c-1.3 0-2.2.4-2.9 1.3-.7.9-1.1 2-1.2 3.5h7.2c0-3.2-1-4.8-3.1-4.8z"/><path id="XMLID_75_" class="st0" d="M137 22.4v-2.9c-1 2.1-2.6 3.2-4.7 3.2-2 0-3.6-.7-4.8-2.1-1.2-1.4-1.8-3.2-1.8-5.5s.6-4.1 1.8-5.5c1.2-1.4 2.9-2 4.9-2s3.6 1.1 4.6 3.2V.8l-2-.3V0h4.8v21.6l2 .3v.6H137zm-8.4-8.7v2.8c0 3.6 1.3 5.4 3.9 5.4 1.2 0 2.3-.5 3.1-1.5s1.3-2.2 1.3-3.7v-3.2c0-1.4-.5-2.7-1.3-3.7s-1.9-1.5-3.1-1.5c-2.6 0-3.9 1.8-3.9 5.4z"/><path id="XMLID_78_" class="st0" d="M143 8.5v-.6h4.8v13.6l2 .3v.6H143v-.6l2-.3V8.8l-2-.3zm1.1-5.7c0-.5.2-1 .5-1.3s.8-.5 1.3-.5 1 .2 1.3.5.5.8.5 1.3-.2 1-.5 1.3c-.4.4-.8.5-1.3.5s-1-.2-1.3-.5c-.3-.4-.5-.8-.5-1.3z"/><path id="XMLID_81_" class="st0" d="M160.6 19.6c-.5 1-1.2 1.7-2.1 2.2-.9.5-2 .8-3.1.8s-2.1-.3-2.9-.9c-.7-.6-1.1-1.5-1.1-2.6s.2-2 .7-2.6c.5-.6 1.1-1.1 1.8-1.5 1.4-.7 3.2-1 5.6-1h1v-2.7c0-2.1-1-3.1-2.9-3.1-.8 0-1.5.2-2.1.6-.5.4-.8.8-.8 1.4 0 .5.3.9.8 1 0 .5-.2.9-.5 1.2-.4.4-.8.5-1.3.5s-.9-.2-1.2-.5-.5-.8-.5-1.3.2-1 .5-1.4c.3-.4.7-.8 1.2-1.1 1-.7 2.4-1 3.9-1 3.8 0 5.7 1.4 5.7 4.3v8.6c0 .8.3 1.3 1 1.3s1-.4 1-1.2h.6c0 .7-.2 1.2-.6 1.5-.4.4-1 .6-1.8.6s-1.5-.3-2.1-.8c-.5-.5-.8-1.2-.8-2.3zm0-2v-2.9h-1c-1.5 0-2.7.3-3.7 1s-1.5 1.7-1.5 3.2c0 .7.2 1.3.6 1.8.4.4 1 .6 1.8.6s1.6-.3 2.4-1 1.3-1.5 1.4-2.7z"/></g></svg>