<svg id="Layer_1" xmlns="http://www.w3.org/2000/svg" viewBox="0 0 72 72"><style>.st0{fill:#fff}</style><path id="twitter-4-icon" class="st0" d="M36 0C16.1 0 0 16.1 0 36s16.1 36 36 36 36-16.1 36-36S55.9 0 36 0zm18.1 29.8c.5 11.7-8.2 24.8-23.7 24.8-4.7 0-9.1-1.4-12.8-3.8 4.4.5 8.9-.7 12.4-3.5-3.7-.1-6.7-2.5-7.8-5.8 1.3.2 2.6.2 3.8-.1-4-.8-6.8-4.4-6.7-8.3 1.1.6 2.4 1 3.8 1-3.7-2.5-4.8-7.4-2.6-11.1 4.1 5.1 10.3 8.4 17.2 8.7-1.2-5.2 2.7-10.3 8.1-10.3 2.4 0 4.6 1 6.1 2.6 1.9-.4 3.7-1.1 5.3-2-.6 2-1.9 3.6-3.7 4.6 1.7-.2 3.3-.7 4.8-1.3-1.1 1.8-2.6 3.3-4.2 4.5z"/></svg>